<?xml version="1.0" encoding="utf-8"?>
<!-- Generator: Adobe Illustrator 19.2.1, SVG Export Plug-In . SVG Version: 6.00 Build 0)  -->
<svg version="1.1" id="Layer_1" xmlns="http://www.w3.org/2000/svg" xmlns:xlink="http://www.w3.org/1999/xlink" x="0px" y="0px"
	 viewBox="0 0 600 250" style="enable-background:new 0 0 600 250;" xml:space="preserve">
<style type="text/css">
	.st0{fill:#2AAAE2;}
	.st1{opacity:0.19;fill:#1072BA;}
	.st2{fill:#FFFFFF;}
	.st3{fill:none;}
	.st4{fill:#ED237A;}
</style>
<g id="Design">
	<g>
		<path class="st0" d="M109.6,26.2c51.2,0,92.6,41.5,92.6,92.6c0,16.9-4.5,32.8-12.5,46.4l16.3,47.5l-52.4-12.4
			c-13.1,7.1-28.1,11.1-44,11.1c-51.2,0-92.6-41.5-92.6-92.6C17,67.7,58.5,26.2,109.6,26.2z"/>
		<path class="st1" d="M45.5,52L206,212.5l0.1,0.3l-52.4-12.4c-13.1,7.1-28.1,11.1-44,11.1c-51.2,0-92.6-41.5-92.6-92.6
			C17,92.6,28,68.9,45.5,52z"/>
		<circle class="st2" cx="109.6" cy="119.5" r="78.3"/>
		<g>
			<path class="st3" d="M108.9,95.8C108.9,95.8,108.9,95.8,108.9,95.8C108.9,95.8,108.9,95.8,108.9,95.8
				C108.9,95.8,108.9,95.8,108.9,95.8z"/>
			<path class="st4" d="M127.6,115.2c-0.2-0.5-0.6-0.7-1.1-0.7c-0.6,0-1,0.3-1.2,0.8l-6.5,15.4l-5.8-26.7c-0.1-0.6-0.6-1-1.2-1
				c0,0,0,0,0,0c-0.6,0-1.1,0.4-1.2,1l-4.4,18.6l-2.8-8.2c-0.2-0.5-0.6-0.8-1.1-0.8c-0.6,0-1,0.3-1.2,0.8l-6.3,15.1L91,110.5
				c-0.1-0.6-0.6-1-1.2-1c-0.5,0-1.1,0.3-1.2,0.9L85.7,123h-9.8c-6.5-12-10.1-34.3,7.9-38.4c18.1-4.2,24.8,10.4,25.1,11.1
				c0.3-0.7,7.1-15.1,25.2-10.9c20,4.6,13.2,31.4,5.5,42.4c-0.4,0.6-0.9,1.8-1.3,1.8h-5.6L127.6,115.2z M108.9,95.8
				C108.9,95.8,108.9,95.8,108.9,95.8C108.9,95.8,108.9,95.8,108.9,95.8C108.9,95.8,108.9,95.8,108.9,95.8z"/>
			<path class="st4" d="M87.9,124.4l1.8-7.8l3.4,17.3c0.1,0.5,0.5,1,1.1,1c0.6,0,1.1-0.2,1.3-0.7l6.6-15.8l3.1,9.2
				c0.2,0.5,0.6,0.9,1.2,0.8c0.6,0,1-0.4,1.1-0.9l4.2-17.5l5.5,25.1c0.1,0.5,0.6,0.9,1.1,1c0,0,0.1,0,0.1,0c0.5,0,0.9-0.3,1.1-0.8
				l6.8-16.1l4.3,12c0.2,0.5,0.6,0.9,1.2,0.9h4.4c-13.6,17-27.1,25.5-27.3,25.6c0,0,0,0,0,0s0,0,0,0c0,0-0.5,0-0.5,0s-0.5,0-0.5,0v0
				c0-0.5-15.9-9.8-30.1-30.3c-0.5-0.7-0.6-1.2-1-2.2h9.9C87.3,125,87.8,124.9,87.9,124.4z"/>
			<path class="st2" d="M144.2,129c0.7,0,1.2,0.8,1.2,1.5s-0.6,1.5-1.2,1.5h-8c0.7-1,1.4-2,2.1-3H144.2z"/>
			<path class="st2" d="M73.7,123h2.2c0.3,1,0.6,2,0.9,2h-3.1c-0.7,0-1.2-0.3-1.2-1S73.1,123,73.7,123z"/>
			<path class="st2" d="M85.7,123l2.9-12.6c0.1-0.6,0.7-1,1.2-1c0.6,0,1.1,0.5,1.2,1.1l3.7,19l6.3-15c0.2-0.5,0.6-0.8,1.2-0.7
				c0.5,0,1,0.4,1.1,0.8l2.8,8.2l4.4-18.7c0.1-0.6,0.6-1,1.2-1c0,0,0,0,0,0c0.6,0,1.1,0.5,1.2,1l5.8,26.6l6.5-15.4
				c0.2-0.5,0.6-0.8,1.2-0.8c0.5,0,1,0.2,1.1,0.7l5.1,13.8h5.6c-0.7,1-1.4,2-2.1,3h-4.4c-0.5,0-1-0.4-1.2-0.9l-4.3-12l-6.8,16.1
				c-0.2,0.5-0.6,0.8-1.1,0.8c0,0-0.1,0-0.1,0c-0.5-0.1-1-0.4-1.1-1l-5.5-25.1l-4.2,17.5c-0.1,0.5-0.6,0.9-1.1,0.9
				c-0.6,0-1.1-0.3-1.2-0.8l-3.1-9.2l-6.6,15.8c-0.2,0.5-0.7,0.8-1.3,0.7c-0.5-0.1-1-0.5-1.1-1l-3.4-17.2l-1.8,7.7
				c-0.1,0.6-0.6,0.6-1.2,0.6h-9.9c-0.3,0-0.6-1-0.9-2H85.7z"/>
		</g>
	</g>
</g>
<g>
	<path class="st0" d="M246.9,113.3c2.5-3.2,5.6-5.6,9.4-7.1c3.8-1.5,8.6-2.3,14.4-2.3c1.5,0,2.7,0.2,3.5,0.7
		c0.9,0.5,0.9,1.4,0.2,2.9c-0.5,0.9-1.2,1.8-2.2,2.7c-1,1-2.1,1.7-3.4,2.1c-0.6,0.2-1.2,0.3-1.9,0.4c-0.7,0.1-1.3,0.1-1.8,0
		c-0.5-0.1-0.9-0.3-1.1-0.6c-0.2-0.3-0.1-0.7,0.2-1.2c0.2-0.3,0.5-0.6,0.8-0.9c0.3-0.3,0.7-0.7,0.9-1c0.3-0.3,0.5-0.7,0.6-1
		c0.1-0.3,0.1-0.5-0.1-0.7c-1.5-0.3-2.9-0.3-4.3-0.1c-1.4,0.2-2.7,0.6-3.9,1.1c-1.2,0.6-2.3,1.3-3.3,2.2c-1,0.9-1.8,1.8-2.4,2.8
		c-0.9,1.3-1.2,2.8-1.1,4.4c0.1,1.6,0.4,3.4,1,5.2c0.6,1.8,1.2,3.8,1.9,5.8c0.7,2.1,1.2,4.2,1.6,6.3c0.3,2.2,0.3,4.4-0.1,6.7
		c-0.4,2.3-1.3,4.6-2.9,7c-2.6,3.8-5.6,6.4-9,7.7c-3.4,1.3-7.1,1.8-11,1.4c-1.9-0.2-3.5-0.7-4.9-1.6c-1.4-0.9-2.6-1.9-3.5-3.2
		c-0.9-1.3-1.6-2.6-2-4.2c-0.4-1.5-0.5-3-0.4-4.4c0.1-1.4,0.5-2.7,1.2-3.9c0.7-1.2,1.7-2.1,3-2.6c0.8-0.4,1.7-0.6,2.6-0.6
		c1,0,1.8,0.1,2.6,0.2c0.7,0.2,1.3,0.5,1.6,0.8c0.3,0.4,0.2,0.8-0.2,1.2c-1.1,1.1-1.9,2.3-2.4,3.7c-0.5,1.4-0.7,2.8-0.6,4.2
		c0.1,1.4,0.5,2.7,1.3,3.9c0.7,1.2,1.8,2.1,3.2,2.6c0.9,0.4,1.9,0.6,2.9,0.7c1,0.1,2,0,3-0.3c1-0.3,2-0.8,2.9-1.5
		c1-0.7,1.8-1.8,2.6-3c1.1-1.8,1.7-3.7,1.8-5.6c0.1-1.9-0.1-3.9-0.6-5.9s-1-4-1.7-6.1c-0.7-2.1-1.1-4.2-1.4-6.2
		c-0.3-2.1-0.2-4.2,0.2-6.3C244.2,117.5,245.2,115.4,246.9,113.3z"/>
	<path class="st0" d="M263.8,138.4c2.5-2.4,4.8-4.3,7-5.7c2.2-1.4,4.3-2.3,6.2-2.8c1.9-0.5,3.6-0.6,5.1-0.3c1.5,0.3,2.7,0.9,3.7,1.7
		c0.6-0.6,1.3-1,2-1.4c0.7-0.3,1.4-0.5,2.1-0.5h2.3c0.7,0,1.2,0.3,1.3,0.8c0.1,0.5-0.1,1.1-0.7,1.9c-0.2,0.3-0.7,0.9-1.5,1.9
		c-0.8,1-1.7,2.2-2.7,3.6c-1,1.4-2,2.9-3.1,4.4c-1.1,1.5-2,2.9-2.7,4.2c-1,1.6-1.6,2.8-1.7,3.5c-0.1,0.7,0,1.1,0.4,1.2
		c0.5,0.2,1.4-0.2,2.7-1c1.3-0.9,2.6-2,4.2-3.4c1.5-1.4,3.1-2.9,4.6-4.5c1.5-1.6,2.9-3.1,4-4.4c0.7-0.9,1.3-1.4,1.8-1.6
		c0.5-0.2,0.9-0.2,1.1,0c0.2,0.2,0.3,0.6,0.3,1.2c-0.1,0.5-0.3,1.1-0.7,1.8c-0.4,0.5-1,1.3-1.8,2.4c-0.9,1.1-1.9,2.2-3.1,3.5
		c-1.2,1.3-2.5,2.6-4,4c-1.4,1.4-2.9,2.7-4.4,3.8c-1.5,1.2-2.9,2.2-4.3,3.1c-1.4,0.9-2.7,1.4-3.8,1.6c-1.3,0.3-2.4,0.2-3.2-0.1
		c-0.8-0.3-1.4-0.9-1.8-1.6c-0.3-0.7-0.5-1.7-0.4-2.7c0.1-1.1,0.4-2.2,0.8-3.4c-1,0.9-2,1.8-3.1,2.8c-1.1,1-2.3,1.8-3.4,2.6
		c-1.2,0.8-2.4,1.4-3.6,1.9c-1.2,0.5-2.3,0.8-3.4,0.8c-1.5,0-2.6-0.5-3.4-1.5c-0.8-1-1.1-2.4-1-4.1c0.2-1.7,0.9-3.8,2.2-6.1
		C259.2,143.5,261.2,141,263.8,138.4z M267.7,141.6c-1.3,1.4-2.3,2.9-2.9,4.3c-0.7,1.4-1,2.6-1,3.5c0,0.9,0.4,1.5,1.2,1.6
		c0.8,0.2,2-0.3,3.6-1.4c1.2-0.7,2.5-1.7,3.8-3c1.4-1.3,2.8-2.7,4.1-4.2c1.4-1.5,2.6-2.9,3.8-4.4s2.2-2.6,2.9-3.6l0.9-1.1
		c-1.2-0.7-2.6-0.9-4.1-0.6c-1.5,0.3-3,0.9-4.6,1.8c-1.5,0.9-3,2-4.4,3.2C269.8,139.2,268.6,140.4,267.7,141.6z"/>
	<path class="st0" d="M296.2,138.4c2.5-2.4,4.8-4.3,7-5.7c2.2-1.4,4.3-2.3,6.2-2.8c1.9-0.5,3.6-0.6,5.1-0.3c1.5,0.3,2.7,0.9,3.7,1.7
		c0.6-0.6,1.3-1,2-1.4c0.7-0.3,1.4-0.5,2.1-0.5h2.3c0.7,0,1.2,0.3,1.3,0.8c0.1,0.5-0.1,1.1-0.7,1.9c-0.2,0.2-0.7,0.8-1.6,2
		s-2,2.8-3.5,4.8c-1.4,2-3.1,4.4-5,7.2c-1.9,2.7-3.9,5.7-6.1,8.9c-2.2,3.2-4.4,6.6-6.7,10.1c-2.3,3.5-4.6,7.2-6.9,10.8
		c-0.4,0.7-1,1-1.7,0.9c-0.7-0.2-1.4-0.6-2-1.2c-0.6-0.6-1-1.5-1.2-2.4c-0.2-1-0.1-2,0.4-2.9c0.3-0.6,0.9-1.7,2-3.2
		c1.1-1.5,2.4-3.4,3.9-5.4c1.5-2.1,3.2-4.3,5-6.6c1.8-2.3,3.6-4.6,5.4-6.8c-1,1-2,2-3.2,3.1c-1.2,1.1-2.5,2.1-3.8,3
		c-1.3,0.9-2.7,1.7-4,2.3c-1.3,0.6-2.6,0.9-3.8,0.9c-1.5,0-2.6-0.5-3.4-1.5c-0.8-1-1.1-2.4-1-4.1c0.2-1.7,0.9-3.8,2.2-6.1
		C291.6,143.5,293.6,141,296.2,138.4z M300.1,141.6c-1.3,1.4-2.3,2.9-2.9,4.3c-0.7,1.4-1,2.6-1,3.5c0,0.9,0.4,1.5,1.2,1.6
		c0.8,0.2,2-0.3,3.6-1.4c1.3-0.8,2.7-1.9,4.3-3.4c1.6-1.5,3.1-3.1,4.6-4.7c1.5-1.7,2.8-3.2,4-4.7c1.2-1.5,2.1-2.6,2.7-3.4
		c-1.2-0.7-2.6-0.9-4.1-0.6c-1.5,0.3-3,0.9-4.6,1.8c-1.5,0.9-3,2-4.4,3.2C302.2,139.2,301,140.4,300.1,141.6z"/>
	<path class="st0" d="M355.9,106.5c-0.1,0.2-0.8,1.1-2.1,2.9c-1.3,1.8-2.9,4-4.8,6.6c-1.9,2.6-4,5.5-6.2,8.7
		c-2.2,3.2-4.4,6.2-6.4,9.1c-2,2.9-3.8,5.4-5.4,7.7s-2.6,3.8-3,4.6c-1,1.6-1.6,2.8-1.7,3.5c-0.1,0.7,0,1.1,0.4,1.2
		c0.5,0.2,1.4-0.2,2.7-1c1.3-0.9,2.7-2,4.2-3.4c1.5-1.4,3.1-2.9,4.6-4.5c1.5-1.6,2.9-3.1,3.9-4.4c0.7-0.9,1.3-1.4,1.8-1.6
		c0.5-0.2,0.9-0.2,1.1,0c0.2,0.2,0.3,0.6,0.3,1.2c-0.1,0.5-0.3,1.1-0.6,1.8c-0.4,0.5-1,1.3-1.9,2.4c-0.9,1.1-1.9,2.2-3.1,3.5
		c-1.2,1.3-2.5,2.6-3.9,4c-1.4,1.4-2.9,2.7-4.3,3.8c-1.5,1.2-2.9,2.2-4.3,3.1c-1.4,0.9-2.7,1.4-3.8,1.6c-1.5,0.3-2.8,0.2-3.6-0.2
		c-0.9-0.5-1.4-1.2-1.7-2.2c-0.2-1-0.2-2.2,0.2-3.6c0.3-1.4,0.9-2.8,1.7-4.2c0.3-0.5,0.9-1.5,1.9-2.9c0.9-1.4,2.1-3.1,3.4-5
		c1.3-1.9,2.8-4.1,4.4-6.4c1.6-2.3,3.2-4.7,4.9-7c1.7-2.3,3.3-4.6,4.8-6.9c1.6-2.2,3-4.2,4.2-6c1.3-1.8,2.3-3.2,3.1-4.4
		c0.8-1.1,1.3-1.8,1.5-2c0.6-0.8,1.4-1.5,2.3-2c0.9-0.5,1.7-0.8,2.5-0.8h2.3c0.7,0,1.2,0.3,1.3,0.8
		C356.7,105.2,356.5,105.8,355.9,106.5z"/>
	<path class="st0" d="M354.1,132.1c-0.2,0.3-0.7,0.9-1.5,1.9c-0.8,1-1.7,2.2-2.7,3.6c-1,1.4-2,2.9-3.1,4.4c-1.1,1.5-2,2.9-2.8,4.2
		c-1,1.6-1.6,2.8-1.7,3.5c-0.1,0.7,0.1,1.1,0.5,1.2c0.5,0.2,1.4-0.2,2.7-1c1.3-0.9,2.6-2,4.2-3.4c1.5-1.4,3.1-2.9,4.6-4.5
		c1.5-1.6,2.9-3.1,4-4.4c0.7-0.9,1.3-1.4,1.8-1.6c0.5-0.2,0.9-0.2,1.1,0c0.2,0.2,0.3,0.6,0.3,1.2c-0.1,0.5-0.3,1.1-0.7,1.8
		c-0.4,0.5-1,1.3-1.8,2.4c-0.9,1.1-1.9,2.2-3.1,3.5c-1.2,1.3-2.5,2.6-4,4c-1.4,1.4-2.9,2.7-4.4,3.8c-1.5,1.2-2.9,2.2-4.3,3.1
		c-1.4,0.9-2.7,1.4-3.8,1.6c-1.5,0.3-2.7,0.2-3.6-0.2c-0.9-0.5-1.4-1.2-1.6-2.2c-0.2-1-0.2-2.2,0.1-3.6c0.3-1.4,0.9-2.8,1.8-4.2
		c0.6-1.1,1.4-2.4,2.4-4c1-1.6,2.1-3.1,3.2-4.6c1.1-1.5,2.1-2.9,3-4.1c0.9-1.2,1.5-2,1.8-2.4c0.6-0.8,1.3-1.4,2.2-1.9
		c0.9-0.5,1.7-0.7,2.5-0.7h2.3c0.7,0,1.2,0.3,1.3,0.8C354.9,130.7,354.6,131.3,354.1,132.1z"/>
	<path class="st0" d="M372.9,151.5c0.8,0.1,1.9-0.3,3.3-1.3c1.4-1,2.9-2.1,4.4-3.6c1.5-1.4,3.1-2.9,4.6-4.6c1.5-1.6,2.8-3.1,3.9-4.4
		c0.7-0.9,1.3-1.4,1.8-1.6c0.5-0.2,0.9-0.2,1.1,0c0.2,0.2,0.3,0.6,0.3,1.2c-0.1,0.5-0.3,1.1-0.7,1.8c-0.4,0.5-1,1.3-1.8,2.4
		c-0.9,1.1-1.9,2.3-3.1,3.6c-1.2,1.3-2.5,2.7-3.9,4.1c-1.4,1.4-2.8,2.7-4.3,3.9c-1.4,1.2-2.9,2.2-4.3,3c-1.4,0.8-2.7,1.3-3.9,1.4
		c-1.4,0.2-2.6-0.2-3.6-1c-1-0.9-1.9-2-2.7-3.3c-0.7-1.4-1.3-2.8-1.8-4.4c-0.5-1.6-0.8-3-1-4.3l-7.4,10.5c-0.6,0.8-1.4,1.5-2.3,2
		c-0.9,0.5-1.7,0.8-2.4,0.8h-2.3c-0.7,0-1.2-0.3-1.3-0.8c-0.1-0.5,0.1-1.2,0.7-1.9l33.8-48.3c0.6-0.8,1.3-1.5,2.2-2
		c0.9-0.5,1.7-0.8,2.5-0.8h2.3c0.7,0,1.2,0.3,1.3,0.8c0.1,0.5-0.1,1.2-0.7,1.9l-23,32.9c1.6-0.3,3.1-0.8,4.5-1.6
		c1.4-0.8,2.7-1.7,3.8-2.6c1.1-0.9,2.1-1.8,3-2.7c0.8-0.9,1.4-1.4,1.8-1.8c0.4-0.4,0.7-0.6,1.1-0.8c0.3-0.2,0.7-0.3,1-0.4
		s0.8-0.1,1.2-0.1c0.5,0,1.1,0,1.8,0c0.7,0,1.4,0,2.1,0.1c0.7,0.1,1.2,0.2,1.5,0.4c0.3,0.2,0.4,0.6,0.2,1.1c-0.2,0.5-0.8,1.2-1.9,2
		c-1.1,0.9-2.3,1.8-3.7,2.7c-1.4,1-2.8,1.9-4.3,2.8s-2.9,1.7-4.4,2.4c-1.5,0.7-2.8,1.2-4.1,1.6c0.1,0.8,0.3,1.7,0.5,2.8
		c0.2,1,0.5,2,0.9,2.9c0.3,0.9,0.8,1.7,1.3,2.3C371.6,151.1,372.2,151.4,372.9,151.5z"/>
</g>
<g>
	<path class="st4" d="M416.1,131.7c0.9-1.3,1.9-2.7,3.1-4.4c1.2-1.6,2.4-3.3,3.6-5c1.2-1.7,2.5-3.4,3.7-5.1c1.2-1.7,2.3-3.2,3.3-4.5
		c1-1.4,1.8-2.5,2.5-3.4c0.7-0.9,1.1-1.5,1.2-1.7c0.6-0.8,1.3-1.5,2-2.2c0.8-0.6,1.9-1,3.3-1h3.2c0.7,0,1.2,0.3,1.3,0.8
		c0.1,0.5-0.1,1.2-0.7,1.9c-0.1,0.2-0.5,0.7-1.2,1.6c-0.7,0.9-1.5,2.1-2.5,3.4c-1,1.4-2.1,2.9-3.4,4.7c-1.3,1.7-2.5,3.5-3.8,5.3
		c-1.3,1.8-2.5,3.5-3.6,5.2c-1.2,1.7-2.2,3.1-3.1,4.4h4.2c1.9,0,3.4,0.3,4.7,0.8c1.3,0.5,2.1,1.1,2.7,1.6c2-2.9,4.1-5.9,6.3-9
		c2.2-3.1,4.2-6,6.1-8.7c1.9-2.6,3.5-4.9,4.8-6.7c1.3-1.8,2-2.9,2.2-3.1c0.6-0.8,1.3-1.5,2.3-2c0.9-0.5,1.8-0.8,2.5-0.8h2.2
		c0.7,0,1.2,0.3,1.3,0.8c0.1,0.5-0.1,1.2-0.7,1.9c-0.2,0.2-0.9,1.1-2.2,2.9c-1.3,1.8-2.9,4-4.8,6.7c-1.9,2.7-4,5.6-6.2,8.7
		c-2.2,3.1-4.4,6.2-6.4,9.1c-2,2.9-3.8,5.5-5.3,7.7c-1.5,2.2-2.6,3.8-3.1,4.6c-1,1.6-1.6,2.8-1.7,3.5c-0.1,0.7,0.1,1.1,0.5,1.2
		c0.5,0.2,1.4-0.2,2.7-1.1c1.3-0.9,2.7-2,4.2-3.4c1.5-1.4,3.1-2.9,4.6-4.5c1.5-1.6,2.9-3.1,4-4.4c0.7-0.9,1.3-1.4,1.8-1.6
		c0.5-0.2,0.9-0.2,1.1,0c0.2,0.2,0.3,0.6,0.3,1.2c-0.1,0.5-0.3,1.1-0.7,1.8c-0.4,0.5-1,1.3-1.9,2.4c-0.9,1.1-1.9,2.3-3.1,3.6
		c-1.2,1.3-2.5,2.7-3.9,4s-2.9,2.7-4.3,3.9c-1.5,1.2-2.9,2.2-4.3,3.1c-1.4,0.9-2.7,1.4-3.9,1.6c-1.5,0.3-2.7,0.2-3.6-0.2
		c-0.9-0.5-1.4-1.2-1.6-2.2c-0.2-1-0.2-2.2,0.1-3.5s0.9-2.8,1.7-4.3c0.4-0.6,1.3-2,2.6-4c1.3-2,2.9-4.3,4.8-7h-13.1
		c-2.5,3.7-4.9,6.9-7.1,9.6c-2.2,2.7-4.5,4.9-6.8,6.7s-4.8,3.1-7.3,3.9c-2.6,0.9-5.4,1.3-8.4,1.3c-1.5,0-2.9-0.3-4.1-0.8
		c-1.2-0.6-2.2-1.3-2.9-2.2c-0.4-0.5-0.6-1-0.6-1.5c0.1-0.5,0.3-0.8,0.7-0.7c0.3,0.1,0.6,0.2,1.1,0.4c0.5,0.2,1,0.4,1.6,0.7
		c0.6,0.2,1.3,0.5,2.1,0.6c0.8,0.2,1.6,0.3,2.5,0.3c1.9,0,3.7-0.5,5.5-1.4c1.7-1,3.4-2.3,5-3.9c1.6-1.7,3.2-3.6,4.8-5.8
		c1.6-2.2,3.2-4.5,4.8-7h-2.2c-1.4,0-2.6-0.2-3.6-0.7c-1-0.5-1.7-1-2.1-1.6c-0.4-0.6-0.6-1.1-0.4-1.6c0.2-0.5,0.7-0.7,1.7-0.7H416.1
		z"/>
	<path class="st4" d="M449.4,138.4c2.5-2.4,4.8-4.3,7-5.7c2.2-1.4,4.3-2.3,6.2-2.8s3.6-0.6,5.1-0.3c1.5,0.3,2.7,0.9,3.7,1.7
		c0.6-0.6,1.3-1,2-1.4c0.7-0.3,1.4-0.5,2.1-0.5h2.3c0.7,0,1.2,0.3,1.3,0.8c0.1,0.5-0.1,1.1-0.7,1.9c-0.2,0.3-0.7,0.9-1.5,1.9
		c-0.8,1-1.7,2.2-2.7,3.6c-1,1.4-2,2.9-3.1,4.4c-1.1,1.5-2,2.9-2.7,4.2c-1,1.6-1.6,2.8-1.7,3.5s0,1.1,0.4,1.2c0.5,0.2,1.4-0.2,2.7-1
		c1.3-0.9,2.6-2,4.2-3.4c1.5-1.4,3.1-2.9,4.6-4.5c1.5-1.6,2.9-3.1,4-4.4c0.7-0.9,1.3-1.4,1.8-1.6c0.5-0.2,0.9-0.2,1.1,0
		c0.2,0.2,0.3,0.6,0.3,1.2c-0.1,0.5-0.3,1.1-0.7,1.8c-0.4,0.5-1,1.3-1.8,2.4c-0.9,1.1-1.9,2.2-3.1,3.5c-1.2,1.3-2.5,2.6-4,4
		c-1.4,1.4-2.9,2.7-4.4,3.8c-1.5,1.2-2.9,2.2-4.3,3.1c-1.4,0.9-2.7,1.4-3.8,1.6c-1.3,0.3-2.4,0.2-3.2-0.1c-0.8-0.3-1.4-0.9-1.8-1.6
		c-0.3-0.7-0.5-1.7-0.4-2.7c0.1-1.1,0.4-2.2,0.8-3.4c-1,0.9-2,1.8-3.1,2.8s-2.3,1.8-3.4,2.6c-1.2,0.8-2.4,1.4-3.6,1.9
		s-2.3,0.8-3.4,0.8c-1.5,0-2.6-0.5-3.4-1.5c-0.8-1-1.1-2.4-1-4.1c0.2-1.7,0.9-3.8,2.2-6.1C444.7,143.5,446.7,141,449.4,138.4z
		 M453.2,141.6c-1.3,1.4-2.3,2.9-2.9,4.3c-0.7,1.4-1,2.6-1,3.5c0,0.9,0.4,1.5,1.2,1.6c0.8,0.2,2-0.3,3.6-1.4c1.2-0.7,2.5-1.7,3.8-3
		c1.4-1.3,2.8-2.7,4.1-4.2c1.4-1.5,2.6-2.9,3.8-4.4c1.2-1.4,2.2-2.6,2.9-3.6l0.9-1.1c-1.2-0.7-2.6-0.9-4.1-0.6
		c-1.5,0.3-3,0.9-4.6,1.8c-1.5,0.9-3,2-4.4,3.2C455.3,139.2,454.2,140.4,453.2,141.6z"/>
	<path class="st4" d="M503.3,129.6c1.4-0.2,2.5-0.2,3.4,0.2c0.9,0.3,1.4,1,1.4,2c0.1,1-0.4,2.5-1.4,4.4c-1,1.9-2.7,4.3-5.1,7.3
		c-1.2,1.4-2.1,2.6-2.7,3.6c-0.6,1-0.9,1.7-1.1,2.3c-0.2,0.6-0.2,0.9-0.1,1.2c0.1,0.2,0.3,0.3,0.5,0.4c0.5,0.2,1.4-0.2,2.7-1
		c1.3-0.9,2.6-2,4.2-3.4c1.5-1.4,3.1-2.9,4.6-4.5c1.5-1.6,2.9-3.1,3.9-4.4c0.7-0.9,1.4-1.4,1.9-1.6c0.5-0.2,0.9-0.2,1.1,0
		c0.2,0.2,0.3,0.6,0.3,1.2c-0.1,0.5-0.3,1.1-0.7,1.8c-0.4,0.5-1,1.3-1.9,2.4c-0.9,1.1-1.9,2.2-3.1,3.5c-1.2,1.3-2.5,2.6-3.9,4
		c-1.4,1.4-2.8,2.7-4.3,3.8c-1.4,1.2-2.9,2.2-4.3,3.1c-1.4,0.9-2.7,1.4-3.8,1.6c-1.6,0.3-2.9,0.2-3.9-0.3c-1-0.5-1.6-1.4-1.8-2.6
		c-0.2-1.2,0.1-2.7,0.8-4.6c0.7-1.9,2-4,3.9-6.4c2.2-2.8,3.9-4.9,4.9-6.2c1-1.3,1.3-2.1,0.7-2.4c-0.5-0.3-1.5,0.1-3,1.1
		c-1.5,1-3.2,2.4-5.2,4c-1.9,1.7-3.9,3.5-5.8,5.6c-1.9,2.1-3.6,4-4.8,5.8c-0.1,0.2-0.2,0.3-0.3,0.4l-2.1,3c-0.6,0.8-1.4,1.5-2.3,2
		c-0.9,0.5-1.7,0.8-2.5,0.8h-2.3c-0.7,0-1.2-0.3-1.3-0.8c-0.1-0.5,0.1-1.2,0.7-1.9l16.1-22.8c0.6-0.8,1.3-1.4,2.2-1.9
		c0.9-0.5,1.7-0.7,2.5-0.7h2.3c0.7,0,1.2,0.3,1.3,0.8c0.1,0.5-0.1,1.1-0.7,1.9l-2.9,4.1c2-1.7,4-3.2,6-4.4S501.4,129.8,503.3,129.6z
		"/>
	<path class="st4" d="M534.9,137.1c-0.8,1.2-1.9,2.3-3.2,3.4c-1.4,1.1-2.9,2-4.7,2.9c-1.8,0.9-3.7,1.6-5.8,2.2
		c-2.1,0.6-4.2,1-6.4,1.1c-0.3,1.3-0.3,2.5-0.1,3.5c0.3,1,0.9,1.6,2,1.9c1.1,0.3,2.5,0.1,4.4-0.6c1.9-0.7,3.9-1.8,6.1-3.2
		c2.2-1.4,4.4-3,6.6-4.8s4.3-3.7,6.1-5.6c0.7-0.8,1.3-1.3,1.9-1.4c0.6-0.2,1-0.1,1.2,0c0.3,0.2,0.4,0.5,0.3,1
		c-0.1,0.5-0.4,1.1-0.8,1.6c-1.7,1.9-3.8,4-6.2,6.2c-2.4,2.2-4.9,4.2-7.4,6c-2.6,1.8-5.1,3.4-7.5,4.6c-2.5,1.2-4.6,1.8-6.6,1.8
		c-2.8,0-4.7-0.7-5.9-2.1c-1.2-1.4-1.7-3.1-1.6-5.2c0.1-2.1,0.8-4.4,2.1-6.8c1.3-2.4,3-4.7,5-6.8c2.1-2.1,4.5-3.9,7.2-5.2
		c2.7-1.4,5.7-2.1,8.8-2.1c1.2,0,2.3,0.2,3.2,0.6c0.9,0.4,1.6,0.9,2,1.6c0.5,0.7,0.6,1.5,0.5,2.4C536.1,134.9,535.7,136,534.9,137.1
		z M525.3,133.3c-0.9,0.3-1.8,0.8-2.7,1.5c-0.9,0.7-1.8,1.5-2.6,2.4c-0.8,0.9-1.6,1.9-2.3,3c-0.7,1.1-1.3,2.1-1.8,3.2
		c2.4-0.3,4.5-0.8,6.2-1.5c1.8-0.7,3.2-1.5,4.3-2.4s1.9-1.8,2.4-2.7c0.5-0.9,0.7-1.7,0.6-2.4c-0.1-0.6-0.5-1.1-1.2-1.4
		C527.6,132.8,526.6,132.8,525.3,133.3z"/>
	<path class="st4" d="M576.2,129.6c1.4-0.2,2.5-0.2,3.4,0.2c0.9,0.3,1.4,1,1.4,2c0.1,1-0.4,2.5-1.4,4.4c-1,1.9-2.7,4.3-5.1,7.3
		c-1.2,1.4-2.1,2.6-2.7,3.6c-0.6,1-0.9,1.7-1.1,2.3c-0.2,0.6-0.2,0.9-0.1,1.2c0.1,0.2,0.3,0.3,0.5,0.4c0.5,0.2,1.4-0.2,2.7-1
		c1.3-0.9,2.6-2,4.2-3.4c1.5-1.4,3.1-2.9,4.6-4.5c1.5-1.6,2.9-3.1,3.9-4.4c0.7-0.9,1.4-1.4,1.9-1.6c0.5-0.2,0.9-0.2,1.1,0
		c0.2,0.2,0.3,0.6,0.3,1.2c-0.1,0.5-0.3,1.1-0.6,1.8c-0.4,0.5-1,1.3-1.9,2.4c-0.9,1.1-1.9,2.2-3.1,3.5c-1.2,1.3-2.5,2.6-3.9,4
		c-1.4,1.4-2.9,2.7-4.3,3.8c-1.5,1.2-2.9,2.2-4.3,3.1s-2.7,1.4-3.8,1.6c-1.6,0.3-2.9,0.2-3.9-0.3c-1-0.5-1.6-1.4-1.8-2.6
		c-0.2-1.2,0.1-2.7,0.8-4.6c0.7-1.9,2-4,3.9-6.4c2.2-2.8,3.9-4.9,4.9-6.2c1-1.3,1.3-2.1,0.7-2.4c-0.4-0.2-1.3,0.1-2.5,0.8
		c-1.3,0.8-2.7,1.9-4.4,3.2s-3.4,3-5.1,4.7c-1.8,1.8-3.4,3.5-4.8,5.2l-4.3,5.9c-0.5,0.7-1.3,1.4-2.2,1.9c-0.9,0.5-1.8,0.8-2.5,0.8
		h-2.3c-0.7,0-1.2-0.3-1.3-0.8c-0.1-0.5,0.1-1.2,0.7-1.9c0.8-1.2,1.7-2.4,2.6-3.8c0.7-1.1,1.6-2.3,2.6-3.7c1-1.3,2-2.6,3-3.9
		c2.2-2.8,3.9-4.8,4.9-6.2c1-1.3,1.3-2.1,0.7-2.4c-0.3-0.2-0.9,0-1.8,0.4c-0.9,0.4-1.9,1-3,1.8c-1.1,0.8-2.4,1.8-3.8,3
		c-1.4,1.1-2.7,2.4-4,3.7c-1.3,1.3-2.6,2.6-3.8,4c-1.2,1.3-2.2,2.6-3.1,3.8c-0.1,0.2-0.2,0.3-0.3,0.4l-2.1,3c-0.6,0.8-1.4,1.5-2.3,2
		c-0.9,0.5-1.7,0.8-2.5,0.8h-2.3c-0.7,0-1.2-0.3-1.3-0.8c-0.1-0.5,0.1-1.2,0.7-1.9l16.1-22.8c0.6-0.8,1.3-1.4,2.2-1.9
		c0.9-0.5,1.7-0.7,2.5-0.7h2.3c0.7,0,1.2,0.3,1.3,0.8c0.1,0.5-0.1,1.1-0.7,1.9l-3.4,4.8c2.2-1.9,4.5-3.5,6.7-4.8
		c2.2-1.4,4.3-2.2,6.3-2.4c1-0.2,1.9-0.2,2.6,0c0.7,0.1,1.3,0.4,1.6,0.9c0.3,0.5,0.5,1.2,0.3,2c-0.1,0.9-0.5,2-1.2,3.4
		c2-1.7,3.9-3.1,5.9-4.2C572.5,130.6,574.4,129.8,576.2,129.6z"/>
</g>
<g>
	<g>
		<path class="st0" d="M299.2,119.7c2.3,0.9,4.7,1.5,7.2,1.8c2.5,0.3,4.8,0.2,7.1-0.2c2.2-0.4,4.2-1,6-2c1.8-1,3.1-2.3,3.9-3.8
			c0.2-0.4,0.5-0.8,0.7-1c0.2-0.2,0.5-0.3,0.6-0.3c0.2,0,0.3,0.2,0.4,0.4c0.1,0.3,0,0.7-0.1,1.3c-0.4,2-1.1,3.6-2.1,4.9
			c-0.9,1.3-2.1,2.2-3.4,2.9c-1.3,0.7-2.7,1.1-4.3,1.2c-1.6,0.2-3.2,0.1-4.8-0.1c-1.7-0.2-3.3-0.6-5-1.1c-1.7-0.5-3.3-1.1-4.8-1.8
			c-0.9-0.4-1.6-0.8-2.1-1.2c-0.5-0.4-0.8-0.7-0.9-0.9c-0.1-0.2,0-0.4,0.2-0.4C298.1,119.4,298.6,119.5,299.2,119.7z"/>
	</g>
</g>
</svg>
